
      <svg data-logo="logo" xmlns="http://www.w3.org/2000/svg" viewBox="0 0 198 43">
        <g id="logogram" transform="translate(0, 1) rotate(0) "><path d="M12.2501 38.5041L8.20328 31.4947L14.1422 21.2365L17.9161 27.7736L40.1946 27.7616L33.8729 38.6009L12.2501 38.5041Z" fill="#FFAD64"/><path d="M44.1727 20.8016L40.1259 27.8108L28.2725 27.7968L32.0468 21.2598L20.8972 1.97211L33.4451 2.02716L44.1727 20.8016Z" fill="#ADD4D3"/><path d="M12.8737 1.93472H20.9674L26.8819 12.2073L19.3334 12.2069L8.2047 31.5066L1.97841 20.6124L12.8737 1.93472Z" fill="#FB8351"/><path fill-rule="evenodd" clip-rule="evenodd" d="M21.9542 0.311858L21.93 0.269989H11.9176L0.0561523 20.604L8.19841 34.8506L8.2084 34.8333L11.2865 40.1647L34.8269 40.27L43.0937 26.0952H43.0387L46.0926 20.8058L34.4136 0.366518L21.9542 0.311858ZM29.6993 13.8721H29.7618L23.8761 3.65005L32.4765 3.68776L42.2528 20.7972L39.1928 26.0974L31.1736 26.1017L33.9696 21.2592L29.6993 13.8721ZM19.9152 3.59966L23.9284 10.5423L18.3719 10.5421L8.85894 27.0394L8.21004 28.1604L3.90107 20.6209L13.8301 3.59966H19.9152ZM16.0567 21.2226L20.2953 13.8719L25.8534 13.8721L30.1241 21.2602L27.3276 26.1038L18.8773 26.1084L16.0567 21.2226ZM10.1296 31.5014L11.7422 28.705L14.1402 24.5628L16.9553 29.4391L25.4043 29.4345L25.3906 29.4581L37.2697 29.4722L32.9192 36.9318L13.2138 36.8436L10.1296 31.5014Z" fill="#333237"/></g>
        <g id="logotype" transform="translate(53, 1.5)"><path fill="#d74e1" d="M12.65 33L7.75 33L7.75 8.50L12.65 8.50L12.65 33ZM20.53 33L15.80 33L15.80 14.80L20.46 14.80L20.46 17.46Q21.89 14.38 26.02 14.38L26.02 14.38Q27.98 14.38 29.55 15.29Q31.13 16.20 32.04 17.88Q32.95 19.56 32.95 21.87L32.95 21.87L32.95 33L28.23 33L28.23 23.02Q28.23 20.64 27.14 19.58Q26.05 18.51 24.30 18.51L24.30 18.51Q22.80 18.51 21.66 19.58Q20.53 20.64 20.53 23.02L20.53 23.02L20.53 33ZM41.81 33.45L41.81 33.45Q37.22 33.45 34.25 30.27L34.25 30.27L37.43 27.36Q39.43 29.61 41.70 29.61L41.70 29.61Q42.93 29.61 43.57 29.06Q44.22 28.52 44.22 27.71L44.22 27.71Q44.22 27.23 43.99 26.88Q43.77 26.52 43.05 26.21Q42.33 25.89 40.90 25.58L40.90 25.58Q38.45 24.98 37.26 24.11Q36.07 23.23 35.68 22.15Q35.30 21.06 35.30 19.91L35.30 19.91Q35.30 17.53 37.10 15.94Q38.90 14.34 42.09 14.34L42.09 14.34Q44.29 14.34 45.87 15.01Q47.44 15.67 48.84 17.49L48.84 17.49L45.41 20.12Q44.75 19.07 43.92 18.61Q43.10 18.16 42.19 18.16L42.19 18.16Q41.21 18.16 40.56 18.54Q39.92 18.93 39.92 19.77L39.92 19.77Q39.92 20.23 40.34 20.66Q40.76 21.10 42.37 21.52L42.37 21.52Q45.03 22.18 46.43 23.08Q47.83 23.97 48.35 25.09Q48.88 26.21 48.88 27.57L48.88 27.57Q48.88 29.25 47.95 30.59Q47.02 31.91 45.43 32.69Q43.84 33.45 41.81 33.45ZM53.08 13.29L53.08 13.29Q51.89 13.29 51.06 12.47Q50.24 11.65 50.24 10.49L50.24 10.49Q50.24 9.37 51.06 8.55Q51.89 7.73 53.08 7.73L53.08 7.73Q54.30 7.73 55.11 8.55Q55.91 9.37 55.91 10.49L55.91 10.49Q55.91 11.68 55.11 12.49Q54.30 13.29 53.08 13.29ZM55.46 33L50.73 33L50.73 14.80L55.46 14.80L55.46 33ZM67.11 40.45L67.11 40.45Q64.34 40.45 62.19 39.70Q60.04 38.95 58.40 37.02L58.40 37.02L61.34 33.56Q62.63 35.03 64.03 35.55Q65.43 36.08 67.15 36.08L67.15 36.08Q68.41 36.08 69.49 35.45Q70.58 34.82 71.22 33.68Q71.87 32.55 71.87 31.11L71.87 31.11L71.87 30.30Q71.14 31.57 69.86 32.34Q68.58 33.10 66.38 33.10L66.38 33.10Q63.89 33.10 61.88 31.84Q59.87 30.59 58.71 28.47Q57.56 26.35 57.56 23.73L57.56 23.73Q57.56 21.10 58.71 18.96Q59.87 16.83 61.88 15.59Q63.89 14.34 66.38 14.34L66.38 14.34Q68.65 14.34 69.93 15.15Q71.21 15.95 71.94 17.28L71.94 17.28L71.94 14.80L76.59 14.80L76.59 31.39Q76.59 34.19 75.39 36.22Q74.18 38.25 72.05 39.35Q69.91 40.45 67.11 40.45ZM67.15 28.80L67.15 28.80Q69.49 28.80 70.79 27.33Q72.08 25.86 72.08 23.73L72.08 23.73Q72.08 21.59 70.79 20.12Q69.49 18.65 67.15 18.65L67.15 18.65Q64.84 18.65 63.56 20.12Q62.28 21.59 62.28 23.73L62.28 23.73Q62.28 25.09 62.86 26.24Q63.44 27.40 64.52 28.10Q65.61 28.80 67.15 28.80ZM84.12 33L79.40 33L79.40 7.45L84.12 7.45L84.12 17.32Q85.59 14.38 89.62 14.38L89.62 14.38Q91.58 14.38 93.15 15.29Q94.73 16.20 95.64 17.88Q96.55 19.56 96.55 21.87L96.55 21.87L96.55 33L91.82 33L91.82 23.02Q91.82 20.64 90.74 19.58Q89.65 18.51 87.90 18.51L87.90 18.51Q86.40 18.51 85.26 19.58Q84.12 20.64 84.12 23.02L84.12 23.02L84.12 33ZM108.34 33L105.75 33Q103.06 33 101.62 31.67Q100.19 30.34 100.19 27.36L100.19 27.36L100.19 18.82L97.63 18.82L97.63 14.80L100.19 14.80L100.19 11.12L104.91 10.63L104.91 14.80L108.76 14.80L108.76 18.82L104.91 18.82L104.91 27.12Q104.91 28.80 106.38 28.80L106.38 28.80L108.34 28.80L108.34 33ZM116.29 33L111.39 33L111.39 8.50L116.29 8.50L116.29 33ZM131.69 33.45L131.69 33.45Q128.96 33.45 126.63 32.48Q124.30 31.50 122.57 29.75Q120.84 27.99 119.87 25.70Q118.91 23.41 118.91 20.78L118.91 20.78Q118.91 18.16 119.87 15.85Q120.84 13.54 122.57 11.79Q124.30 10.04 126.63 9.04Q128.96 8.04 131.69 8.04L131.69 8.04Q134.42 8.04 136.73 9.04Q139.04 10.04 140.75 11.79Q142.47 13.54 143.43 15.85Q144.39 18.16 144.39 20.78L144.39 20.78Q144.39 23.48 143.38 25.84Q142.36 28.20 140.58 29.92L140.58 29.92L143.94 34.99L138.62 34.99L136.87 32.41Q135.68 32.90 134.38 33.17Q133.09 33.45 131.69 33.45ZM131.69 28.91L131.69 28.91Q133.23 28.91 134.52 28.41L134.52 28.41L131.58 23.97L136.90 23.97L137.99 25.58Q139.32 23.52 139.32 20.78L139.32 20.78Q139.32 18.54 138.39 16.69Q137.46 14.83 135.76 13.71Q134.07 12.59 131.69 12.59L131.69 12.59Q129.31 12.59 127.57 13.71Q125.84 14.83 124.91 16.69Q123.99 18.54 123.99 20.78L123.99 20.78Q123.99 22.99 124.91 24.84Q125.84 26.70 127.57 27.80Q129.31 28.91 131.69 28.91Z"/></g>
        
      </svg>
    